<svg width="40" height="19" viewBox="0 0 40 19" fill="none" xmlns="http://www.w3.org/2000/svg">
<path d="M20 19C19.6748 19 19.3687 18.9435 19.0818 18.8304C18.814 18.7334 18.5557 18.588 18.307 18.3941L0.688671 3.41709C0.229561 3.02934 -1.11936e-07 2.5608 -8.79246e-08 2.01148C-6.25006e-08 1.42985 0.21999 0.945152 0.659973 0.557397C1.11908 0.185798 1.6834 -1.67487e-06 2.35294 -1.64561e-06C2.98422 -1.61801e-06 3.54855 0.193876 4.04591 0.581632L20 14.1288L35.9541 0.581633C36.4515 0.193878 37.0158 -1.30444e-07 37.6471 -1.0285e-07C38.3166 -7.3584e-08 38.8714 0.1858 39.3113 0.557398C39.7704 0.945154 40 1.42985 40 2.01148C40 2.5608 39.7704 3.02934 39.3113 3.41709L21.693 18.3941C21.2147 18.798 20.6504 19 20 19Z" fill="#FF8C67"/>
</svg>
