<svg width="571" height="544" viewBox="0 0 571 544" fill="none" xmlns="http://www.w3.org/2000/svg">
<path d="M348.996 116.714C359.876 51.5258 400.877 -11.2312 475.775 1.70757C498.288 5.59696 508.562 12.1947 524.711 28.1524C538.007 41.2901 540.272 44.422 549.167 61.02C568.296 96.1737 575.129 136.69 568.58 176.153C564.716 199.735 550.312 231.546 530.112 246.495C513.124 259.065 492.987 262.293 487.393 286.897C485.233 296.398 486.631 305.236 487.063 314.66L488.229 343.853C489.865 388.645 491.906 433.399 493.432 478.153C493.033 491.587 495.674 508.222 492.772 521.205C489.634 535.241 467.231 546.577 453.695 543.489C410.928 533.733 426.157 495.427 425.568 463.854C426.01 463.098 426.57 458.032 426.734 456.815L423.551 461.435C420.732 464.595 417.492 470.536 414.04 474.333C407.091 481.976 399.164 489.461 391.546 496.372C385.614 501.753 379.474 504.259 373.253 508.274C347.719 524.747 316.09 532.882 285.755 532.209C276.092 532.133 267.337 532.318 257.6 531.485C226.338 528.814 196.958 515.704 170.889 498.852C163.784 494.259 154.289 484.045 148.049 478.078C141.981 472.276 136.906 462.052 131.069 455.148C133.544 466.799 133.05 483.262 133.932 495.514C134.422 508.903 137.382 517.505 128.258 529.1C111.386 550.542 78.8695 548.073 65.8723 524.325C62.715 518.557 63.9469 497.093 64.1484 489.121L65.7399 443.711L69.2403 338.388C69.6827 323.294 71.1567 308.429 70.4981 293.446C69.3833 268.088 52.4175 265.163 34.667 254.021C19.3027 244.376 8.21434 225.888 3.39278 208.822C2.4487 205.481 1.57803 199.034 0 196.2V152.652L0.113093 152.218C1.93993 144.943 1.72586 134.425 2.58182 126.739C5.49545 100.574 8.4775 74.4202 9.48875 48.0975C9.69153 42.8186 10.15 32.9724 15.7833 30.1502C31.4698 22.2922 45.9305 28.1561 46.8838 46.7024C47.5506 57.1332 46.3863 66.8242 46.3432 77.2364C46.9532 96.7173 48.0478 115.425 48.2244 134.986C48.7397 145.996 47.0597 157.916 49.6587 168.657C50.4944 172.111 57.0589 176.672 60.2977 177.35C66.7443 178.699 72.3941 174.033 76.2107 169.444C77.2185 161.88 76.8379 152.714 77.2644 144.832C78.6278 122.59 79.5128 100.322 79.9151 78.0427C80.1051 64.5054 78.8253 53.2827 81.0543 39.4981C82.8707 21.6986 116.442 22.5514 116.907 40.6154C117.953 81.2048 120.566 121.669 120.162 162.298C120.09 169.64 123.941 175.786 131.472 177.132C135.47 177.836 139.584 176.889 142.869 174.507C146.508 171.865 148.282 167.974 148.664 163.569C151.299 133.387 148.968 102.838 149.464 72.6024C149.626 62.7165 149.184 50.2472 151.26 40.8328C156.027 19.2128 186.323 22.2062 188.851 45.2054C191.039 65.117 190.403 83.3358 191.695 103.18C195.554 153.849 212.429 219.654 162.655 254.257C149.838 263.167 128.461 268.807 126.267 288.416C120.949 335.957 127.13 400.856 155.701 440.703C178.716 472.709 213.593 494.22 252.58 500.451C302.91 508.682 350.034 494.566 387.422 460.021C414.446 435.052 424.059 402.107 429.73 366.93C433.149 344.977 434.164 322.718 432.759 300.546C432.428 295.19 432.515 290.759 431.222 285.507C430.137 281.268 428.241 277.276 425.639 273.754C416.19 260.705 402.1 257.716 390.401 247.989C352.901 216.806 341.373 162.839 348.996 116.714ZM368.837 361.713C394.568 359.769 393.404 382.847 380.973 397.753C380.794 398.14 380.599 398.521 380.391 398.892C368.58 420.142 338.407 436.929 315.677 443.433C282.654 452.799 247.258 448.755 217.212 432.184C207.361 426.695 194.786 418.31 187.604 409.701C178.405 398.676 163.991 381.382 172.491 366.473C175.394 364.503 179.917 362.676 183.326 361.82C200.991 360.611 200.766 372.51 208.764 383.983C226.049 408.783 262.879 419.993 291.903 415.838C312.26 412.923 336.589 401.303 349.696 385.086C355.089 378.414 359.475 363.47 368.837 361.713ZM331.044 290.086C349.023 290.406 349.481 306.745 349.269 320.232C349.05 334.115 345.759 338.623 332.277 341.272C323.18 340.859 315.053 338.151 314.444 327.931C313.846 317.869 312.131 304.264 317.705 295.1C319.719 291.79 327.39 290.554 331.044 290.086ZM224.544 290.54C232.452 289.664 235.303 290.956 241.911 294.827C246.023 303.719 246.47 309.401 246.324 319.101C246.141 331.29 244.896 337.55 232.265 340.73C226.18 341.906 221.251 339.575 215.786 337.411C209.217 327.154 209.216 307.883 214.142 296.742C215.902 292.765 220.681 291.609 224.544 290.54Z" fill="url(#paint0_linear_2288_4237)" fill-opacity="0.2"/>
<defs>
<linearGradient id="paint0_linear_2288_4237" x1="285.5" y1="0" x2="285.281" y2="725.596" gradientUnits="userSpaceOnUse">
<stop stop-color="#F05925"/>
<stop offset="1" stop-color="#FF6E3F"/>
</linearGradient>
</defs>
</svg>
